{
    "asset": {
        "generator": "FBX2glTF v0.9.7",
        "version": "2.0"
    },
    "scene": 0,
    "buffers": [
        {
            "byteLength": 263128,
            "uri": "buffer.bin"
        }
    ],
    "bufferViews": [
        {
            "buffer": 0,
            "byteLength": 1656,
            "byteOffset": 0,
            "target": 34963
        },
        {
            "buffer": 0,
            "byteLength": 3804,
            "byteOffset": 1656,
            "target": 34962
        },
        {
            "buffer": 0,
            "byteLength": 3804,
            "byteOffset": 5460,
            "target": 34962
        },
        {
            "buffer": 0,
            "byteLength": 2536,
            "byteOffset": 9264,
            "target": 34962
        },
        {
            "buffer": 0,
            "byteLength": 38016,
            "byteOffset": 11800,
            "target": 34963
        },
        {
            "buffer": 0,
            "byteLength": 79992,
            "byteOffset": 49816,
            "target": 34962
        },
        {
            "buffer": 0,
            "byteLength": 79992,
            "byteOffset": 129808,
            "target": 34962
        },
        {
            "buffer": 0,
            "byteLength": 53328,
            "byteOffset": 209800,
            "target": 34962
        }
    ],
    "scenes": [
        {
            "name": "Root Scene",
            "nodes": [
                0
            ]
        }
    ],
    "accessors": [
        {
            "componentType": 5123,
            "type": "SCALAR",
            "count": 828,
            "bufferView": 0,
            "byteOffset": 0
        },
        {
            "componentType": 5126,
            "type": "VEC3",
            "count": 317,
            "bufferView": 1,
            "byteOffset": 0,
            "min": [
                -1.44010865688324,
                -0.201251864433289,
                -1.38021624088287
            ],
            "max": [
                -0.139586582779884,
                2.47137212753296,
                1.38021624088287
            ]
        },
        {
            "componentType": 5126,
            "type": "VEC3",
            "count": 317,
            "bufferView": 2,
            "byteOffset": 0
        },
        {
            "componentType": 5126,
            "type": "VEC2",
            "count": 317,
            "bufferView": 3,
            "byteOffset": 0
        },
        {
            "componentType": 5123,
            "type": "SCALAR",
            "count": 19008,
            "bufferView": 4,
            "byteOffset": 0
        },
        {
            "componentType": 5126,
            "type": "VEC3",
            "count": 6666,
            "bufferView": 5,
            "byteOffset": 0,
            "min": [
                -0.451952815055847,
                -2.47137212753296,
                -0.834214389324188
            ],
            "max": [
                1.44010865688324,
                1.91503274440765,
                0.735233068466187
            ]
        },
        {
            "componentType": 5126,
            "type": "VEC3",
            "count": 6666,
            "bufferView": 6,
            "byteOffset": 0
        },
        {
            "componentType": 5126,
            "type": "VEC2",
            "count": 6666,
            "bufferView": 7,
            "byteOffset": 0
        }
    ],
    "images": [
        {
            "name": "44.png",
            "uri": "44.png"
        },
        {
            "name": "45.png",
            "uri": "45.png"
        }
    ],
    "samplers": [
        {}
    ],
    "textures": [
        {
            "name": "44",
            "sampler": 0,
            "source": 0
        },
        {
            "name": "45",
            "sampler": 0,
            "source": 1
        }
    ],
    "materials": [
        {
            "name": "44",
            "alphaMode": "OPAQUE",
            "extras": {
                "fromFBX": {
                    "shadingModel": "Phong",
                    "isTruePBR": false
                }
            },
            "pbrMetallicRoughness": {
                "baseColorTexture": {
                    "index": 0,
                    "texCoord": 0
                },
                "baseColorFactor": [
                    1.0,
                    1.0,
                    1.0,
                    1.0
                ],
                "metallicFactor": 0.400000005960464,
                "roughnessFactor": 0.242535620927811
            }
        },
        {
            "name": "45",
            "alphaMode": "OPAQUE",
            "extras": {
                "fromFBX": {
                    "shadingModel": "Phong",
                    "isTruePBR": false
                }
            },
            "pbrMetallicRoughness": {
                "baseColorTexture": {
                    "index": 1,
                    "texCoord": 0
                },
                "baseColorFactor": [
                    1.0,
                    1.0,
                    1.0,
                    1.0
                ],
                "metallicFactor": 0.400000005960464,
                "roughnessFactor": 0.242535620927811
            }
        }
    ],
    "meshes": [
        {
            "name": "零件",
            "primitives": [
                {
                    "material": 0,
                    "mode": 4,
                    "attributes": {
                        "NORMAL": 2,
                        "POSITION": 1,
                        "TEXCOORD_0": 3
                    },
                    "indices": 0
                },
                {
                    "material": 1,
                    "mode": 4,
                    "attributes": {
                        "NORMAL": 6,
                        "POSITION": 5,
                        "TEXCOORD_0": 7
                    },
                    "indices": 4
                }
            ]
        }
    ],
    "cameras": [
        {
            "name": "",
            "type": "perspective",
            "perspective": {
                "znear": 0.00100000004749745,
                "zfar": 10000.0,
                "aspectRatio": 1.77777779102325,
                "yfov": 0.548334896564484
            }
        }
    ],
    "nodes": [
        {
            "name": "RootNode",
            "translation": [
                0.0,
                0.0,
                0.0
            ],
            "rotation": [
                0.0,
                0.0,
                0.0,
                1.0
            ],
            "scale": [
                1.0,
                1.0,
                1.0
            ],
            "children": [
                1,
                2,
                3
            ]
        },
        {
            "name": "Cinema_4D_编辑器",
            "translation": [
                -6.10061502456665,
                1.69963371753693,
                17.3972606658936
            ],
            "rotation": [
                -0.0742635279893875,
                -0.0902308821678162,
                -0.00674724951386452,
                0.993125259876251
            ],
            "scale": [
                1.0,
                1.0,
                1.0
            ],
            "camera": 0
        },
        {
            "name": "物理天空",
            "translation": [
                0.0,
                0.0,
                0.0
            ],
            "rotation": [
                0.0,
                0.0,
                0.0,
                1.0
            ],
            "scale": [
                1.0,
                1.0,
                1.0
            ]
        },
        {
            "name": "零件",
            "translation": [
                0.0,
                0.0,
                0.0
            ],
            "rotation": [
                0.0,
                0.0,
                0.0,
                1.0
            ],
            "scale": [
                1.0,
                1.0,
                1.0
            ],
            "mesh": 0
        }
    ]
}