{
    "asset": {
        "generator": "FBX2glTF v0.9.7",
        "version": "2.0"
    },
    "scene": 0,
    "buffers": [
        {
            "byteLength": 1698076,
            "uri": "buffer.bin"
        }
    ],
    "bufferViews": [
        {
            "buffer": 0,
            "byteLength": 266268,
            "byteOffset": 0,
            "target": 34963
        },
        {
            "buffer": 0,
            "byteLength": 536928,
            "byteOffset": 266268,
            "target": 34962
        },
        {
            "buffer": 0,
            "byteLength": 536928,
            "byteOffset": 803196,
            "target": 34962
        },
        {
            "buffer": 0,
            "byteLength": 357952,
            "byteOffset": 1340124,
            "target": 34962
        }
    ],
    "scenes": [
        {
            "name": "Root Scene",
            "nodes": [
                0
            ]
        }
    ],
    "accessors": [
        {
            "componentType": 5123,
            "type": "SCALAR",
            "count": 133134,
            "bufferView": 0,
            "byteOffset": 0
        },
        {
            "componentType": 5126,
            "type": "VEC3",
            "count": 44744,
            "bufferView": 1,
            "byteOffset": 0,
            "min": [
                -5.10003089904785,
                -0.58735454082489,
                -5.01393747329712
            ],
            "max": [
                5.10003089904785,
                0.58735454082489,
                5.01393747329712
            ]
        },
        {
            "componentType": 5126,
            "type": "VEC3",
            "count": 44744,
            "bufferView": 2,
            "byteOffset": 0
        },
        {
            "componentType": 5126,
            "type": "VEC2",
            "count": 44744,
            "bufferView": 3,
            "byteOffset": 0
        }
    ],
    "samplers": [
        {}
    ],
    "materials": [
        {
            "name": "等高线",
            "alphaMode": "OPAQUE",
            "extras": {
                "fromFBX": {
                    "shadingModel": "Lambert",
                    "isTruePBR": false
                }
            },
            "emissiveFactor": [
                0.109999999403954,
                0.643999993801117,
                1.0
            ],
            "pbrMetallicRoughness": {
                "baseColorFactor": [
                    0.0,
                    0.0,
                    0.0,
                    0.170000001788139
                ],
                "metallicFactor": 0.200000002980232,
                "roughnessFactor": 0.800000011920929
            }
        }
    ],
    "meshes": [
        {
            "name": "等高线",
            "primitives": [
                {
                    "material": 0,
                    "mode": 4,
                    "attributes": {
                        "NORMAL": 2,
                        "POSITION": 1,
                        "TEXCOORD_0": 3
                    },
                    "indices": 0
                }
            ]
        }
    ],
    "cameras": [
        {
            "name": "",
            "type": "perspective",
            "perspective": {
                "znear": 0.00100000004749745,
                "zfar": 10000.0,
                "aspectRatio": 1.77777779102325,
                "yfov": 0.548334896564484
            }
        }
    ],
    "nodes": [
        {
            "name": "RootNode",
            "translation": [
                0.0,
                0.0,
                0.0
            ],
            "rotation": [
                0.0,
                0.0,
                0.0,
                1.0
            ],
            "scale": [
                1.0,
                1.0,
                1.0
            ],
            "children": [
                1,
                2
            ]
        },
        {
            "name": "Cinema_4D_编辑器",
            "translation": [
                11.2980051040649,
                5.94501686096191,
                4.49030828475952
            ],
            "rotation": [
                -0.170085519552231,
                0.364436060190201,
                0.0678886547684669,
                0.91304349899292
            ],
            "scale": [
                1.0,
                1.0,
                1.0
            ],
            "camera": 0
        },
        {
            "name": "等高线",
            "translation": [
                1.25882065296173,
                0.711683809757233,
                -5.90095186233521
            ],
            "rotation": [
                0.0,
                0.0,
                0.0,
                1.0
            ],
            "scale": [
                1.0,
                1.0,
                1.0
            ],
            "mesh": 0
        }
    ]
}