{
    "asset": {
        "generator": "FBX2glTF v0.9.7",
        "version": "2.0"
    },
    "scene": 0,
    "buffers": [
        {
            "byteLength": 371016,
            "uri": "buffer.bin"
        }
    ],
    "bufferViews": [
        {
            "buffer": 0,
            "byteLength": 80136,
            "byteOffset": 0,
            "target": 34963
        },
        {
            "buffer": 0,
            "byteLength": 109080,
            "byteOffset": 80136,
            "target": 34962
        },
        {
            "buffer": 0,
            "byteLength": 109080,
            "byteOffset": 189216,
            "target": 34962
        },
        {
            "buffer": 0,
            "byteLength": 72720,
            "byteOffset": 298296,
            "target": 34962
        }
    ],
    "scenes": [
        {
            "name": "Root Scene",
            "nodes": [
                0
            ]
        }
    ],
    "accessors": [
        {
            "componentType": 5123,
            "type": "SCALAR",
            "count": 40068,
            "bufferView": 0,
            "byteOffset": 0
        },
        {
            "componentType": 5126,
            "type": "VEC3",
            "count": 9090,
            "bufferView": 1,
            "byteOffset": 0,
            "min": [
                -0.877085864543915,
                -1.04623138904572,
                -0.609373509883881
            ],
            "max": [
                1.18012452125549,
                1.06335830688477,
                0.623106300830841
            ]
        },
        {
            "componentType": 5126,
            "type": "VEC3",
            "count": 9090,
            "bufferView": 2,
            "byteOffset": 0
        },
        {
            "componentType": 5126,
            "type": "VEC2",
            "count": 9090,
            "bufferView": 3,
            "byteOffset": 0
        }
    ],
    "images": [
        {
            "name": "43.png",
            "uri": "43.png"
        }
    ],
    "samplers": [
        {}
    ],
    "textures": [
        {
            "name": "43",
            "sampler": 0,
            "source": 0
        }
    ],
    "materials": [
        {
            "name": "43",
            "alphaMode": "OPAQUE",
            "extras": {
                "fromFBX": {
                    "shadingModel": "Phong",
                    "isTruePBR": false
                }
            },
            "pbrMetallicRoughness": {
                "baseColorTexture": {
                    "index": 0,
                    "texCoord": 0
                },
                "baseColorFactor": [
                    1.0,
                    1.0,
                    1.0,
                    1.0
                ],
                "metallicFactor": 0.400000005960464,
                "roughnessFactor": 0.242535620927811
            }
        }
    ],
    "meshes": [
        {
            "name": "元件_1",
            "primitives": [
                {
                    "material": 0,
                    "mode": 4,
                    "attributes": {
                        "NORMAL": 2,
                        "POSITION": 1,
                        "TEXCOORD_0": 3
                    },
                    "indices": 0
                }
            ]
        }
    ],
    "cameras": [
        {
            "name": "",
            "type": "perspective",
            "perspective": {
                "znear": 0.00100000004749745,
                "zfar": 10000.0,
                "aspectRatio": 1.77777779102325,
                "yfov": 0.548334896564484
            }
        }
    ],
    "nodes": [
        {
            "name": "RootNode",
            "translation": [
                0.0,
                0.0,
                0.0
            ],
            "rotation": [
                0.0,
                0.0,
                0.0,
                1.0
            ],
            "scale": [
                1.0,
                1.0,
                1.0
            ],
            "children": [
                1,
                2,
                3
            ]
        },
        {
            "name": "Cinema_4D_编辑器",
            "translation": [
                -2.48007607460022,
                3.06088852882385,
                8.12084674835205
            ],
            "rotation": [
                -0.158051550388336,
                -0.130550056695938,
                -0.0210862457752228,
                0.978535532951355
            ],
            "scale": [
                1.0,
                1.0,
                1.0
            ],
            "camera": 0
        },
        {
            "name": "物理天空",
            "translation": [
                0.0,
                0.0,
                0.0
            ],
            "rotation": [
                0.0,
                0.0,
                0.0,
                1.0
            ],
            "scale": [
                1.0,
                1.0,
                1.0
            ]
        },
        {
            "name": "元件_1",
            "translation": [
                0.0,
                0.0,
                0.0
            ],
            "rotation": [
                0.0,
                0.0,
                0.0,
                1.0
            ],
            "scale": [
                1.0,
                1.0,
                1.0
            ],
            "mesh": 0
        }
    ]
}