{
    "asset": {
        "generator": "FBX2glTF v0.9.7",
        "version": "2.0"
    },
    "scene": 0,
    "buffers": [
        {
            "byteLength": 302080,
            "uri": "buffer.bin"
        }
    ],
    "bufferViews": [
        {
            "buffer": 0,
            "byteLength": 33264,
            "byteOffset": 0,
            "target": 34963
        },
        {
            "buffer": 0,
            "byteLength": 59400,
            "byteOffset": 33264,
            "target": 34962
        },
        {
            "buffer": 0,
            "byteLength": 59400,
            "byteOffset": 92664,
            "target": 34962
        },
        {
            "buffer": 0,
            "byteLength": 39600,
            "byteOffset": 152064,
            "target": 34962
        },
        {
            "buffer": 0,
            "byteLength": 16464,
            "byteOffset": 191664,
            "target": 34963
        },
        {
            "buffer": 0,
            "byteLength": 35232,
            "byteOffset": 208128,
            "target": 34962
        },
        {
            "buffer": 0,
            "byteLength": 35232,
            "byteOffset": 243360,
            "target": 34962
        },
        {
            "buffer": 0,
            "byteLength": 23488,
            "byteOffset": 278592,
            "target": 34962
        }
    ],
    "scenes": [
        {
            "name": "Root Scene",
            "nodes": [
                0
            ]
        }
    ],
    "accessors": [
        {
            "componentType": 5123,
            "type": "SCALAR",
            "count": 16632,
            "bufferView": 0,
            "byteOffset": 0
        },
        {
            "componentType": 5126,
            "type": "VEC3",
            "count": 4950,
            "bufferView": 1,
            "byteOffset": 0,
            "min": [
                -3.75826954841614,
                -0.715404093265533,
                -3.75826954841614
            ],
            "max": [
                3.75826954841614,
                0.715404093265533,
                3.75826954841614
            ]
        },
        {
            "componentType": 5126,
            "type": "VEC3",
            "count": 4950,
            "bufferView": 2,
            "byteOffset": 0
        },
        {
            "componentType": 5126,
            "type": "VEC2",
            "count": 4950,
            "bufferView": 3,
            "byteOffset": 0
        },
        {
            "componentType": 5123,
            "type": "SCALAR",
            "count": 8232,
            "bufferView": 4,
            "byteOffset": 0
        },
        {
            "componentType": 5126,
            "type": "VEC3",
            "count": 2936,
            "bufferView": 5,
            "byteOffset": 0,
            "min": [
                -4.37229776382446,
                -0.40071913599968,
                -4.36367034912109
            ],
            "max": [
                4.37229776382446,
                0.207164734601974,
                4.36367034912109
            ]
        },
        {
            "componentType": 5126,
            "type": "VEC3",
            "count": 2936,
            "bufferView": 6,
            "byteOffset": 0
        },
        {
            "componentType": 5126,
            "type": "VEC2",
            "count": 2936,
            "bufferView": 7,
            "byteOffset": 0
        }
    ],
    "samplers": [
        {}
    ],
    "materials": [
        {
            "name": "风机外壳颜色",
            "alphaMode": "OPAQUE",
            "extras": {
                "fromFBX": {
                    "shadingModel": "Lambert",
                    "isTruePBR": false
                }
            },
            "pbrMetallicRoughness": {
                "baseColorFactor": [
                    0.990000009536743,
                    0.990000009536743,
                    0.990000009536743,
                    1.0
                ],
                "metallicFactor": 0.200000002980232,
                "roughnessFactor": 0.800000011920929
            }
        },
        {
            "name": "材质.5",
            "alphaMode": "OPAQUE",
            "extras": {
                "fromFBX": {
                    "shadingModel": "Phong",
                    "isTruePBR": false
                }
            },
            "pbrMetallicRoughness": {
                "baseColorFactor": [
                    0.0900000035762787,
                    0.0900000035762787,
                    0.0900000035762787,
                    1.0
                ],
                "metallicFactor": 0.400000005960464,
                "roughnessFactor": 0.242535620927811
            }
        }
    ],
    "meshes": [
        {
            "name": "底",
            "primitives": [
                {
                    "material": 0,
                    "mode": 4,
                    "attributes": {
                        "NORMAL": 2,
                        "POSITION": 1,
                        "TEXCOORD_0": 3
                    },
                    "indices": 0
                },
                {
                    "material": 1,
                    "mode": 4,
                    "attributes": {
                        "NORMAL": 6,
                        "POSITION": 5,
                        "TEXCOORD_0": 7
                    },
                    "indices": 4
                }
            ]
        }
    ],
    "cameras": [
        {
            "name": "",
            "type": "perspective",
            "perspective": {
                "znear": 0.00100000004749745,
                "zfar": 10000.0,
                "aspectRatio": 1.77777779102325,
                "yfov": 0.548334896564484
            }
        }
    ],
    "nodes": [
        {
            "name": "RootNode",
            "translation": [
                0.0,
                0.0,
                0.0
            ],
            "rotation": [
                0.0,
                0.0,
                0.0,
                1.0
            ],
            "scale": [
                1.0,
                1.0,
                1.0
            ],
            "children": [
                1,
                2
            ]
        },
        {
            "name": "Cinema_4D_编辑器",
            "translation": [
                19.368371963501,
                2.29880237579346,
                19.3005046844482
            ],
            "rotation": [
                -0.0484776869416237,
                0.411853522062302,
                0.0219476949423552,
                0.909694910049438
            ],
            "scale": [
                1.0,
                1.0,
                1.0
            ],
            "camera": 0
        },
        {
            "name": "底",
            "translation": [
                0.0,
                0.0,
                0.0
            ],
            "rotation": [
                0.0,
                0.0,
                0.0,
                1.0
            ],
            "scale": [
                1.0,
                1.0,
                1.0
            ],
            "mesh": 0
        }
    ]
}