{
    "asset": {
        "generator": "FBX2glTF v0.9.7",
        "version": "2.0"
    },
    "scene": 0,
    "buffers": [
        {
            "byteLength": 76264,
            "uri": "buffer.bin"
        }
    ],
    "bufferViews": [
        {
            "buffer": 0,
            "byteLength": 1152,
            "byteOffset": 0,
            "target": 34963
        },
        {
            "buffer": 0,
            "byteLength": 3264,
            "byteOffset": 1152,
            "target": 34962
        },
        {
            "buffer": 0,
            "byteLength": 3264,
            "byteOffset": 4416,
            "target": 34962
        },
        {
            "buffer": 0,
            "byteLength": 2176,
            "byteOffset": 7680,
            "target": 34962
        },
        {
            "buffer": 0,
            "byteLength": 5352,
            "byteOffset": 9856,
            "target": 34963
        },
        {
            "buffer": 0,
            "byteLength": 11328,
            "byteOffset": 15208,
            "target": 34962
        },
        {
            "buffer": 0,
            "byteLength": 11328,
            "byteOffset": 26536,
            "target": 34962
        },
        {
            "buffer": 0,
            "byteLength": 7552,
            "byteOffset": 37864,
            "target": 34962
        },
        {
            "buffer": 0,
            "byteLength": 4224,
            "byteOffset": 45416,
            "target": 34963
        },
        {
            "buffer": 0,
            "byteLength": 9984,
            "byteOffset": 49640,
            "target": 34962
        },
        {
            "buffer": 0,
            "byteLength": 9984,
            "byteOffset": 59624,
            "target": 34962
        },
        {
            "buffer": 0,
            "byteLength": 6656,
            "byteOffset": 69608,
            "target": 34962
        }
    ],
    "scenes": [
        {
            "name": "Root Scene",
            "nodes": [
                0
            ]
        }
    ],
    "accessors": [
        {
            "componentType": 5123,
            "type": "SCALAR",
            "count": 576,
            "bufferView": 0,
            "byteOffset": 0
        },
        {
            "componentType": 5126,
            "type": "VEC3",
            "count": 272,
            "bufferView": 1,
            "byteOffset": 0,
            "min": [
                -8.65092086791992,
                1.76995313167572,
                -5.50799131393433
            ],
            "max": [
                8.65092086791992,
                1.87298607826233,
                5.50799131393433
            ]
        },
        {
            "componentType": 5126,
            "type": "VEC3",
            "count": 272,
            "bufferView": 2,
            "byteOffset": 0
        },
        {
            "componentType": 5126,
            "type": "VEC2",
            "count": 272,
            "bufferView": 3,
            "byteOffset": 0
        },
        {
            "componentType": 5123,
            "type": "SCALAR",
            "count": 2676,
            "bufferView": 4,
            "byteOffset": 0
        },
        {
            "componentType": 5126,
            "type": "VEC3",
            "count": 944,
            "bufferView": 5,
            "byteOffset": 0,
            "min": [
                -8.58675765991211,
                -1.87298607826233,
                -5.500412940979
            ],
            "max": [
                8.61184978485107,
                1.80298471450806,
                5.50705194473267
            ]
        },
        {
            "componentType": 5126,
            "type": "VEC3",
            "count": 944,
            "bufferView": 6,
            "byteOffset": 0
        },
        {
            "componentType": 5126,
            "type": "VEC2",
            "count": 944,
            "bufferView": 7,
            "byteOffset": 0
        },
        {
            "componentType": 5123,
            "type": "SCALAR",
            "count": 2112,
            "bufferView": 8,
            "byteOffset": 0
        },
        {
            "componentType": 5126,
            "type": "VEC3",
            "count": 832,
            "bufferView": 9,
            "byteOffset": 0,
            "min": [
                -7.12045574188232,
                -0.478205978870392,
                -3.64383625984192
            ],
            "max": [
                7.09563016891479,
                1.31967425346375,
                3.81385827064514
            ]
        },
        {
            "componentType": 5126,
            "type": "VEC3",
            "count": 832,
            "bufferView": 10,
            "byteOffset": 0
        },
        {
            "componentType": 5126,
            "type": "VEC2",
            "count": 832,
            "bufferView": 11,
            "byteOffset": 0
        }
    ],
    "images": [
        {
            "name": "49.png",
            "uri": "49.png"
        }
    ],
    "samplers": [
        {}
    ],
    "textures": [
        {
            "name": "49",
            "sampler": 0,
            "source": 0
        }
    ],
    "materials": [
        {
            "name": "49",
            "alphaMode": "OPAQUE",
            "extras": {
                "fromFBX": {
                    "shadingModel": "Phong",
                    "isTruePBR": false
                }
            },
            "pbrMetallicRoughness": {
                "baseColorTexture": {
                    "index": 0,
                    "texCoord": 0
                },
                "baseColorFactor": [
                    1.0,
                    1.0,
                    1.0,
                    1.0
                ],
                "metallicFactor": 0.400000005960464,
                "roughnessFactor": 0.242535620927811
            }
        },
        {
            "name": "材质.5",
            "alphaMode": "OPAQUE",
            "extras": {
                "fromFBX": {
                    "shadingModel": "Phong",
                    "isTruePBR": false
                }
            },
            "pbrMetallicRoughness": {
                "baseColorFactor": [
                    0.0,
                    0.0,
                    0.0,
                    1.0
                ],
                "metallicFactor": 0.400000005960464,
                "roughnessFactor": 0.242535620927811
            }
        },
        {
            "name": "DefaultMaterial",
            "alphaMode": "OPAQUE",
            "extras": {
                "fromFBX": {
                    "shadingModel": "Lambert",
                    "isTruePBR": false
                }
            },
            "pbrMetallicRoughness": {
                "baseColorFactor": [
                    0.5,
                    0.5,
                    0.5,
                    1.0
                ],
                "metallicFactor": 0.200000002980232,
                "roughnessFactor": 0.800000011920929
            }
        }
    ],
    "meshes": [
        {
            "name": "底盘2",
            "primitives": [
                {
                    "material": 0,
                    "mode": 4,
                    "attributes": {
                        "NORMAL": 2,
                        "POSITION": 1,
                        "TEXCOORD_0": 3
                    },
                    "indices": 0
                },
                {
                    "material": 1,
                    "mode": 4,
                    "attributes": {
                        "NORMAL": 6,
                        "POSITION": 5,
                        "TEXCOORD_0": 7
                    },
                    "indices": 4
                },
                {
                    "material": 2,
                    "mode": 4,
                    "attributes": {
                        "NORMAL": 10,
                        "POSITION": 9,
                        "TEXCOORD_0": 11
                    },
                    "indices": 8
                }
            ]
        }
    ],
    "cameras": [
        {
            "name": "",
            "type": "perspective",
            "perspective": {
                "znear": 0.00100000004749745,
                "zfar": 10000.0,
                "aspectRatio": 1.77777779102325,
                "yfov": 0.548334896564484
            }
        }
    ],
    "nodes": [
        {
            "name": "RootNode",
            "translation": [
                0.0,
                0.0,
                0.0
            ],
            "rotation": [
                0.0,
                0.0,
                0.0,
                1.0
            ],
            "scale": [
                1.0,
                1.0,
                1.0
            ],
            "children": [
                1,
                2,
                3
            ]
        },
        {
            "name": "Cinema_4D_编辑器",
            "translation": [
                -11.9943799972534,
                11.9604835510254,
                31.7257537841797
            ],
            "rotation": [
                -0.140180364251137,
                -0.129209250211716,
                -0.018454272300005,
                0.981485486030579
            ],
            "scale": [
                1.0,
                1.0,
                1.0
            ],
            "camera": 0
        },
        {
            "name": "物理天空",
            "translation": [
                0.0,
                0.0,
                0.0
            ],
            "rotation": [
                0.0,
                0.0,
                0.0,
                1.0
            ],
            "scale": [
                1.0,
                1.0,
                1.0
            ]
        },
        {
            "name": "底盘2",
            "translation": [
                0.0,
                0.0,
                0.0
            ],
            "rotation": [
                0.0,
                0.0,
                0.0,
                1.0
            ],
            "scale": [
                1.0,
                1.0,
                1.0
            ],
            "mesh": 0
        }
    ]
}